<?xml version="1.0" standalone="no"?><!DOCTYPE svg PUBLIC "-//W3C//DTD SVG 1.1//EN" "http://www.w3.org/Graphics/SVG/1.1/DTD/svg11.dtd"><svg stroke-width="2" id="Layer_1" data-name="Layer 1" viewBox="0 0 24 24" version="1.1" xmlns="http://www.w3.org/2000/svg" xmlns:xlink="http://www.w3.org/1999/xlink"><defs><style>.cls-wagg0edhetq9zecmn0j5m-1{fill:none;stroke:#2966F4;stroke-miterlimit:10;;}</style></defs><path class="cls-wagg0edhetq9zecmn0j5m-1" d="M15.83 23.5a2.87 2.87 0 0 1 2.87-2.87 2.88 2.88 0 0 1 2.87 2.87"/><circle class="cls-wagg0edhetq9zecmn0j5m-1" cx="18.7" cy="16.8" r="1.91"/><path class="cls-wagg0edhetq9zecmn0j5m-1" d="M2.43 23.5a2.88 2.88 0 0 1 2.87-2.87 2.87 2.87 0 0 1 2.87 2.87"/><circle class="cls-wagg0edhetq9zecmn0j5m-1" cx="5.3" cy="16.8" r="1.91"/><circle class="cls-wagg0edhetq9zecmn0j5m-1" cx="7.22" cy="5.33"/><circle class="cls-wagg0edhetq9zecmn0j5m-1" cx="12" cy="5.33"/><circle class="cls-wagg0edhetq9zecmn0j5m-1" cx="16.78" cy="5.33"/><polygon class="cls-wagg0edhetq9zecmn0j5m-1" points="1.48 1.5 1.48 9.15 5.3 9.15 5.3 11.06 8.17 9.15 15.83 9.15 18.7 11.06 18.7 9.15 22.52 9.15 22.52 1.5 1.48 1.5"/></svg>